<svg xmlns="http://www.w3.org/2000/svg" viewBox="0 0 64 64" fill="none" stroke="#7c5e99" stroke-width="2" stroke-linecap="round" stroke-linejoin="round">
    <path d="M32 12C34.2091 12 36 10.2091 36 8C36 5.79086 34.2091 4 32 4C29.7909 4 28 5.79086 28 8C28 10.2091 29.7909 12 32 12Z" />
    <path d="M32 12V22" />
    <path d="M28 22H36" />
    <path d="M37 31C42.5228 31 47 26.5228 47 21C47 15.4772 42.5228 11 37 11C31.4772 11 27 15.4772 27 21C27 26.5228 31.4772 31 37 31Z" />
    <path d="M27 31C21.4772 31 17 26.5228 17 21C17 15.4772 21.4772 11 27 11C32.5228 11 37 15.4772 37 21C37 26.5228 32.5228 31 27 31Z" />
    <path d="M25 46H39" />
    <path d="M25 41H39" />
    <path d="M25 36H39" />
    <path d="M32 31V60" />
    <path d="M25 60H39" />
</svg> 